<?xml version="1.0" encoding="UTF-8" standalone="no"?>
<svg
   xmlns:dc="http://purl.org/dc/elements/1.1/"
   xmlns:cc="http://creativecommons.org/ns#"
   xmlns:rdf="http://www.w3.org/1999/02/22-rdf-syntax-ns#"
   xmlns:svg="http://www.w3.org/2000/svg"
   xmlns="http://www.w3.org/2000/svg"
   xmlns:sodipodi="http://sodipodi.sourceforge.net/DTD/sodipodi-0.dtd"
   xmlns:inkscape="http://www.inkscape.org/namespaces/inkscape"
   version="1.2"
   width="50"
   height="50"
   viewBox="0 0 50 50"
   overflow="inherit"
   id="svg4"
   sodipodi:docname="map-school-grey.svg"
   inkscape:version="0.92.2 5c3e80d, 2017-08-06">
  <metadata
     id="metadata10">
    <rdf:RDF>
      <cc:Work
         rdf:about="">
        <dc:format>image/svg+xml</dc:format>
        <dc:type
           rdf:resource="http://purl.org/dc/dcmitype/StillImage" />
        <dc:title></dc:title>
      </cc:Work>
    </rdf:RDF>
  </metadata>
  <defs
     id="defs8" />
  <sodipodi:namedview
     pagecolor="#ffffff"
     bordercolor="#666666"
     borderopacity="1"
     objecttolerance="10"
     gridtolerance="10"
     guidetolerance="10"
     inkscape:pageopacity="0"
     inkscape:pageshadow="2"
     inkscape:window-width="1021"
     inkscape:window-height="775"
     id="namedview6"
     showgrid="false"
     inkscape:zoom="3.0099219"
     inkscape:cx="-34.469982"
     inkscape:cy="25"
     inkscape:window-x="249"
     inkscape:window-y="0"
     inkscape:window-maximized="0"
     inkscape:current-layer="svg4" />
  <path
     d="M25.015 2.4c-7.8 0-14.121 6.204-14.121 13.854 0 7.652 14.121 32.746 14.121 32.746s14.122-25.094 14.122-32.746c0-7.65-6.325-13.854-14.122-13.854z"
     id="path2"
     style="fill:#7a7a7a;fill-opacity:1" />
  <path
     inkscape:connector-curvature="0"
     d="M 26.806736,11.488875 V 24.229791 H 17.540615 V 11.488875 h 9.266121 M 28.351089,9.9445225 H 15.996262 V 26.160233 H 28.351089 Z M 18.69888,13.033229 h 6.949591 v 1.544353 H 18.69888 Z m 0,2.702618 h 6.949591 v 1.544354 H 18.69888 Z m 0,2.702619 h 6.949591 v 1.544353 H 18.69888 Z m 0,2.702618 h 6.949591 v 1.544354 H 18.69888 Z m 11.968739,-8.107855 h 3.088707 V 23.843703 H 30.667619 Z M 32.21429,8.7862575 c -0.847079,0 -1.546671,0.681446 -1.546671,1.5200295 v 1.568677 h 3.088707 v -1.568677 c 0,-0.8385835 -0.698433,-1.5200295 -1.542036,-1.5200295 z m -1.570608,16.2157105 1.560183,2.465946 1.552461,-2.465946 z"
     id="path2-7"
     style="fill:#ffffff;stroke-width:0.38608837" />
</svg>
